<svg width="1020" height="454" viewBox="0 0 1020 454" xmlns="http://www.w3.org/2000/svg" font-family="'Segoe UI',Arial,sans-serif">

<!-- ══════ TITLE ══════ -->
<text x="510" y="22" text-anchor="middle" font-size="13" font-weight="700" fill="#1a1a18">Unified Rewards Platform — Entity Relationship Diagram (High-Level Summary)</text>

<!-- ══════════════════════════════════════════════════════════════════════════
     RELATIONSHIP LINES  (drawn first so entities sit on top)
     ══════════════════════════════════════════════════════════════════════════ -->

<!-- 1. Users ——|——|—— Employees  (1:1)  vertical C1 -->
<line x1="110" y1="144" x2="110" y2="162" stroke="#555" stroke-width="1"/>
<!-- cardinality ticks -->
<line x1="103" y1="147" x2="117" y2="147" stroke="#555" stroke-width="1"/>
<line x1="103" y1="159" x2="117" y2="159" stroke="#555" stroke-width="1"/>
<text x="115" y="156" font-size="7" fill="#555">1:1</text>

<!-- 2. Employees ——|——o{—— Managers  (1:1 IS-A) vertical C1 -->
<line x1="110" y1="266" x2="110" y2="300" stroke="#555" stroke-width="1"/>
<line x1="103" y1="269" x2="117" y2="269" stroke="#555" stroke-width="1"/>
<line x1="103" y1="297" x2="117" y2="297" stroke="#555" stroke-width="1"/>
<text x="115" y="285" font-size="7" fill="#555">1:1</text>
<text x="115" y="293" font-size="7" fill="#555">IS-A</text>

<!-- 3. Employees ——|——o{—— Claims  (1:M) horizontal -->
<line x1="200" y1="214" x2="220" y2="214" stroke="#555" stroke-width="1"/>
<line x1="198" y1="208" x2="198" y2="220" stroke="#555" stroke-width="1"/>
<!-- crowfoot: -->
<line x1="218" y1="209" x2="224" y2="214" stroke="#555" stroke-width="1"/>
<line x1="218" y1="219" x2="224" y2="214" stroke="#555" stroke-width="1"/>
<line x1="218" y1="208" x2="218" y2="220" stroke="#555" stroke-width="1"/>
<text x="207" y="209" font-size="7" fill="#555">1:M</text>

<!-- 4. Claims ——|——o{—— ClaimWorkflows  (1:M) vertical C2 -->
<line x1="310" y1="280" x2="310" y2="300" stroke="#555" stroke-width="1"/>
<line x1="303" y1="283" x2="317" y2="283" stroke="#555" stroke-width="1"/>
<line x1="306" y1="297" x2="310" y2="301" stroke="#555" stroke-width="1"/>
<line x1="314" y1="297" x2="310" y2="301" stroke="#555" stroke-width="1"/>
<line x1="306" y1="296" x2="314" y2="296" stroke="#555" stroke-width="1"/>
<text x="315" y="293" font-size="7" fill="#555">1:M</text>

<!-- 5. PayrollRecords ——|——|—— PaySlips  (1:1) vertical C3 -->
<line x1="510" y1="280" x2="510" y2="300" stroke="#555" stroke-width="1"/>
<line x1="503" y1="283" x2="517" y2="283" stroke="#555" stroke-width="1"/>
<line x1="503" y1="297" x2="517" y2="297" stroke="#555" stroke-width="1"/>
<text x="515" y="293" font-size="7" fill="#555">1:1</text>

<!-- 6. BenefitPlans ——|——o{—— BenefitEnrollments  (1:M) vertical C4 -->
<line x1="710" y1="144" x2="710" y2="162" stroke="#555" stroke-width="1"/>
<line x1="703" y1="147" x2="717" y2="147" stroke="#555" stroke-width="1"/>
<line x1="706" y1="159" x2="710" y2="163" stroke="#555" stroke-width="1"/>
<line x1="714" y1="159" x2="710" y2="163" stroke="#555" stroke-width="1"/>
<line x1="706" y1="158" x2="714" y2="158" stroke="#555" stroke-width="1"/>
<text x="715" y="157" font-size="7" fill="#555">1:M</text>

<!-- 7. CompensationRules ——|——o{—— CTCBreakdowns  (1:M) vertical C5 -->
<line x1="910" y1="144" x2="910" y2="162" stroke="#555" stroke-width="1"/>
<line x1="903" y1="147" x2="917" y2="147" stroke="#555" stroke-width="1"/>
<line x1="906" y1="159" x2="910" y2="163" stroke="#555" stroke-width="1"/>
<line x1="914" y1="159" x2="910" y2="163" stroke="#555" stroke-width="1"/>
<line x1="906" y1="158" x2="914" y2="158" stroke="#555" stroke-width="1"/>
<text x="915" y="157" font-size="7" fill="#555">1:M</text>

<!-- 8-10. Employees ——o{—— PayrollRecords / BenefitEnrollments / CTCBreakdowns
     Routed below Row-2 at y=288 (dashed, cross-domain)  -->
<!-- vertical stem from Employees bottom -->
<line x1="115" y1="266" x2="115" y2="288" stroke="#999" stroke-width="0.8" stroke-dasharray="4 2"/>
<!-- horizontal bus -->
<line x1="115" y1="288" x2="910" y2="288" stroke="#999" stroke-width="0.8" stroke-dasharray="4 2"/>
<!-- drop to PayrollRecords bottom -->
<line x1="510" y1="288" x2="510" y2="280" stroke="#999" stroke-width="0.8" stroke-dasharray="4 2"/>
<!-- drop to BenefitEnrollments bottom -->
<line x1="710" y1="288" x2="710" y2="266" stroke="#999" stroke-width="0.8" stroke-dasharray="4 2"/>
<!-- drop to CTCBreakdowns bottom -->
<line x1="910" y1="288" x2="910" y2="266" stroke="#999" stroke-width="0.8" stroke-dasharray="4 2"/>
<!-- labels -->
<text x="308" y="298" font-size="6" fill="#888">1:M</text>
<text x="605" y="298" font-size="6" fill="#888">1:M</text>
<text x="805" y="298" font-size="6" fill="#888">1:M</text>

<!-- ══════════════════════════════════════════════════════════════════════════
     ENTITY BOXES
     Layout:  C1=x20  C2=x220  C3=x420  C4=x620  C5=x820   w=180
              R1=y40  R2=y162  R3=y300
              h5=104  h6=118
     ══════════════════════════════════════════════════════════════════════════ -->

<!-- ───────────── R1 ───────────── -->

<!-- ══ Users  [C1 R1] ══ Identity #1A5C42 -->
<rect x="20"  y="40" width="180" height="104" rx="4" fill="white" stroke="#2E9E75" stroke-width="1"/>
<rect x="20"  y="40" width="180" height="28"  rx="4" fill="#1A5C42"/>
<rect x="20"  y="54" width="180" height="14"  fill="#1A5C42"/>
<text x="110" y="52" text-anchor="middle" font-size="7" font-style="italic" fill="#9FE1CB">«Identity»</text>
<text x="110" y="63" text-anchor="middle" font-size="10" font-weight="700" fill="white">Users</text>
<line x1="20" y1="68" x2="200" y2="68" stroke="#2E9E75" stroke-width="0.5"/>
<text x="28" y="82"  font-size="8" fill="#1a1a18">• user_id : GUID  PK</text>
<text x="28" y="96"  font-size="8" fill="#1a1a18">· name : VARCHAR(100)</text>
<text x="28" y="110" font-size="8" fill="#1a1a18">· email : VARCHAR(150)</text>
<text x="28" y="124" font-size="8" fill="#1a1a18">· role : VARCHAR(20)</text>
<text x="28" y="138" font-size="8" fill="#1a1a18">· is_active : BIT</text>

<!-- ══ BenefitPlans  [C4 R1] ══ Benefits #2A5C1A -->
<rect x="620" y="40" width="180" height="104" rx="4" fill="white" stroke="#5EA825" stroke-width="1"/>
<rect x="620" y="40" width="180" height="28"  rx="4" fill="#2A5C1A"/>
<rect x="620" y="54" width="180" height="14"  fill="#2A5C1A"/>
<text x="710" y="52" text-anchor="middle" font-size="7" font-style="italic" fill="#C0DD97">«Benefits»</text>
<text x="710" y="63" text-anchor="middle" font-size="10" font-weight="700" fill="white">BenefitPlans</text>
<line x1="620" y1="68" x2="800" y2="68" stroke="#5EA825" stroke-width="0.5"/>
<text x="628" y="82"  font-size="8" fill="#1a1a18">• plan_id : GUID  PK</text>
<text x="628" y="96"  font-size="8" fill="#1a1a18">· plan_name : VARCHAR(100)</text>
<text x="628" y="110" font-size="8" fill="#1a1a18">· plan_type : VARCHAR(20)</text>
<text x="628" y="124" font-size="8" fill="#1a1a18">· coverage_amount : DECIMAL</text>
<text x="628" y="138" font-size="8" fill="#1a1a18">· effective_from : DATE</text>

<!-- ══ CompensationRules  [C5 R1] ══ Compensation #7A3D0A -->
<rect x="820" y="40" width="180" height="104" rx="4" fill="white" stroke="#C47A20" stroke-width="1"/>
<rect x="820" y="40" width="180" height="28"  rx="4" fill="#7A3D0A"/>
<rect x="820" y="54" width="180" height="14"  fill="#7A3D0A"/>
<text x="910" y="52" text-anchor="middle" font-size="7" font-style="italic" fill="#FAC775">«Compensation»</text>
<text x="910" y="63" text-anchor="middle" font-size="10" font-weight="700" fill="white">CompensationRules</text>
<line x1="820" y1="68" x2="1000" y2="68" stroke="#C47A20" stroke-width="0.5"/>
<text x="828" y="82"  font-size="8" fill="#1a1a18">• rule_id : GUID  PK</text>
<text x="828" y="96"  font-size="8" fill="#1a1a18">· rule_name : VARCHAR(100)</text>
<text x="828" y="110" font-size="8" fill="#1a1a18">· formula : NVARCHAR(MAX)</text>
<text x="828" y="124" font-size="8" fill="#1a1a18">· applicable_grade : VARCHAR(10)</text>
<text x="828" y="138" font-size="8" fill="#1a1a18">· valid_from : DATE</text>

<!-- ───────────── R2 ───────────── -->

<!-- ══ Employees  [C1 R2] ══ Identity -->
<rect x="20"  y="162" width="180" height="104" rx="4" fill="white" stroke="#2E9E75" stroke-width="1"/>
<rect x="20"  y="162" width="180" height="28"  rx="4" fill="#1A5C42"/>
<rect x="20"  y="176" width="180" height="14"  fill="#1A5C42"/>
<text x="110" y="174" text-anchor="middle" font-size="7" font-style="italic" fill="#9FE1CB">«Identity»</text>
<text x="110" y="185" text-anchor="middle" font-size="10" font-weight="700" fill="white">Employees</text>
<line x1="20" y1="190" x2="200" y2="190" stroke="#2E9E75" stroke-width="0.5"/>
<text x="28" y="204" font-size="8" fill="#1a1a18">• employee_id : GUID  PK</text>
<text x="28" y="218" font-size="8" fill="#555555">◦ user_id : GUID  FK</text>
<text x="28" y="232" font-size="8" fill="#1a1a18">· department : VARCHAR(100)</text>
<text x="28" y="246" font-size="8" fill="#1a1a18">· join_date : DATE</text>
<text x="28" y="260" font-size="8" fill="#1a1a18">· employment_type : VARCHAR(20)</text>

<!-- ══ Claims  [C2 R2] ══ Claims #8B2D1C  h6=118 -->
<rect x="220" y="162" width="180" height="118" rx="4" fill="white" stroke="#D85A30" stroke-width="1"/>
<rect x="220" y="162" width="180" height="28"  rx="4" fill="#8B2D1C"/>
<rect x="220" y="176" width="180" height="14"  fill="#8B2D1C"/>
<text x="310" y="174" text-anchor="middle" font-size="7" font-style="italic" fill="#F5C4B3">«Claims»</text>
<text x="310" y="185" text-anchor="middle" font-size="10" font-weight="700" fill="white">Claims</text>
<line x1="220" y1="190" x2="400" y2="190" stroke="#D85A30" stroke-width="0.5"/>
<text x="228" y="204" font-size="8" fill="#1a1a18">• claim_id : GUID  PK</text>
<text x="228" y="218" font-size="8" fill="#555555">◦ employee_id : GUID  FK</text>
<text x="228" y="232" font-size="8" fill="#1a1a18">· claim_type : VARCHAR(50)</text>
<text x="228" y="246" font-size="8" fill="#1a1a18">· total_amount : DECIMAL(18,2)</text>
<text x="228" y="260" font-size="8" fill="#1a1a18">· status : VARCHAR(20)</text>
<text x="228" y="274" font-size="8" fill="#1a1a18">· submitted_on : DATE</text>

<!-- ══ PayrollRecords  [C3 R2] ══ Payroll #1C4A7A  h6=118 -->
<rect x="420" y="162" width="180" height="118" rx="4" fill="white" stroke="#2E7AB5" stroke-width="1"/>
<rect x="420" y="162" width="180" height="28"  rx="4" fill="#1C4A7A"/>
<rect x="420" y="176" width="180" height="14"  fill="#1C4A7A"/>
<text x="510" y="174" text-anchor="middle" font-size="7" font-style="italic" fill="#B5D4F4">«Payroll»</text>
<text x="510" y="185" text-anchor="middle" font-size="10" font-weight="700" fill="white">PayrollRecords</text>
<line x1="420" y1="190" x2="600" y2="190" stroke="#2E7AB5" stroke-width="0.5"/>
<text x="428" y="204" font-size="8" fill="#1a1a18">• payroll_id : GUID  PK</text>
<text x="428" y="218" font-size="8" fill="#555555">◦ employee_id : GUID  FK</text>
<text x="428" y="232" font-size="8" fill="#1a1a18">· pay_year : INT</text>
<text x="428" y="246" font-size="8" fill="#1a1a18">· pay_month : INT</text>
<text x="428" y="260" font-size="8" fill="#1a1a18">· total_pay : DECIMAL(18,2)</text>
<text x="428" y="274" font-size="8" fill="#1a1a18">· status : VARCHAR(20)</text>

<!-- ══ BenefitEnrollments  [C4 R2] ══ Benefits -->
<rect x="620" y="162" width="180" height="104" rx="4" fill="white" stroke="#5EA825" stroke-width="1"/>
<rect x="620" y="162" width="180" height="28"  rx="4" fill="#2A5C1A"/>
<rect x="620" y="176" width="180" height="14"  fill="#2A5C1A"/>
<text x="710" y="174" text-anchor="middle" font-size="7" font-style="italic" fill="#C0DD97">«Benefits»</text>
<text x="710" y="185" text-anchor="middle" font-size="10" font-weight="700" fill="white">BenefitEnrollments</text>
<line x1="620" y1="190" x2="800" y2="190" stroke="#5EA825" stroke-width="0.5"/>
<text x="628" y="204" font-size="8" fill="#1a1a18">• enrollment_id : GUID  PK</text>
<text x="628" y="218" font-size="8" fill="#555555">◦ employee_id : GUID  FK</text>
<text x="628" y="232" font-size="8" fill="#555555">◦ plan_id : GUID  FK</text>
<text x="628" y="246" font-size="8" fill="#1a1a18">· enrolled_on : DATE</text>
<text x="628" y="260" font-size="8" fill="#1a1a18">· status : VARCHAR(20)</text>

<!-- ══ CTCBreakdowns  [C5 R2] ══ Compensation -->
<rect x="820" y="162" width="180" height="104" rx="4" fill="white" stroke="#C47A20" stroke-width="1"/>
<rect x="820" y="162" width="180" height="28"  rx="4" fill="#7A3D0A"/>
<rect x="820" y="176" width="180" height="14"  fill="#7A3D0A"/>
<text x="910" y="174" text-anchor="middle" font-size="7" font-style="italic" fill="#FAC775">«Compensation»</text>
<text x="910" y="185" text-anchor="middle" font-size="10" font-weight="700" fill="white">CTCBreakdowns</text>
<line x1="820" y1="190" x2="1000" y2="190" stroke="#C47A20" stroke-width="0.5"/>
<text x="828" y="204" font-size="8" fill="#1a1a18">• ctc_id : GUID  PK</text>
<text x="828" y="218" font-size="8" fill="#555555">◦ employee_id : GUID  FK</text>
<text x="828" y="232" font-size="8" fill="#1a1a18">· financial_year : VARCHAR(9)</text>
<text x="828" y="246" font-size="8" fill="#1a1a18">· total_ctc : DECIMAL(18,2)</text>
<text x="828" y="260" font-size="8" fill="#1a1a18">· effective_from : DATE</text>

<!-- ───────────── R3 ───────────── -->

<!-- ══ Managers  [C1 R3] ══ Identity -->
<rect x="20"  y="300" width="180" height="104" rx="4" fill="white" stroke="#2E9E75" stroke-width="1"/>
<rect x="20"  y="300" width="180" height="28"  rx="4" fill="#1A5C42"/>
<rect x="20"  y="314" width="180" height="14"  fill="#1A5C42"/>
<text x="110" y="312" text-anchor="middle" font-size="7" font-style="italic" fill="#9FE1CB">«Identity»</text>
<text x="110" y="323" text-anchor="middle" font-size="10" font-weight="700" fill="white">Managers</text>
<line x1="20" y1="328" x2="200" y2="328" stroke="#2E9E75" stroke-width="0.5"/>
<text x="28" y="342" font-size="8" fill="#1a1a18">• manager_id : GUID  PK</text>
<text x="28" y="356" font-size="8" fill="#555555">◦ user_id : GUID  FK</text>
<text x="28" y="370" font-size="8" fill="#555555">◦ employee_id : GUID  FK</text>
<text x="28" y="384" font-size="8" fill="#1a1a18">· team_size : INT</text>
<text x="28" y="398" font-size="8" fill="#1a1a18">· cost_center_id : VARCHAR(20)</text>

<!-- ══ ClaimWorkflows  [C2 R3] ══ Claims  h6=118 -->
<rect x="220" y="300" width="180" height="118" rx="4" fill="white" stroke="#D85A30" stroke-width="1"/>
<rect x="220" y="300" width="180" height="28"  rx="4" fill="#8B2D1C"/>
<rect x="220" y="314" width="180" height="14"  fill="#8B2D1C"/>
<text x="310" y="312" text-anchor="middle" font-size="7" font-style="italic" fill="#F5C4B3">«Claims»</text>
<text x="310" y="323" text-anchor="middle" font-size="10" font-weight="700" fill="white">ClaimWorkflows</text>
<line x1="220" y1="328" x2="400" y2="328" stroke="#D85A30" stroke-width="0.5"/>
<text x="228" y="342" font-size="8" fill="#1a1a18">• workflow_id : GUID  PK</text>
<text x="228" y="356" font-size="8" fill="#555555">◦ claim_id : GUID  FK</text>
<text x="228" y="370" font-size="8" fill="#555555">◦ employee_id : GUID  FK</text>
<text x="228" y="384" font-size="8" fill="#555555">◦ approver_id : GUID  FK</text>
<text x="228" y="398" font-size="8" fill="#1a1a18">· current_step : VARCHAR(30)</text>
<text x="228" y="412" font-size="8" fill="#1a1a18">· sla_deadline : DATETIME</text>

<!-- ══ PaySlips  [C3 R3] ══ Payroll -->
<rect x="420" y="300" width="180" height="104" rx="4" fill="white" stroke="#2E7AB5" stroke-width="1"/>
<rect x="420" y="300" width="180" height="28"  rx="4" fill="#1C4A7A"/>
<rect x="420" y="314" width="180" height="14"  fill="#1C4A7A"/>
<text x="510" y="312" text-anchor="middle" font-size="7" font-style="italic" fill="#B5D4F4">«Payroll»</text>
<text x="510" y="323" text-anchor="middle" font-size="10" font-weight="700" fill="white">PaySlips</text>
<line x1="420" y1="328" x2="600" y2="328" stroke="#2E7AB5" stroke-width="0.5"/>
<text x="428" y="342" font-size="8" fill="#1a1a18">• payslip_id : GUID  PK</text>
<text x="428" y="356" font-size="8" fill="#555555">◦ payroll_id : GUID  FK</text>
<text x="428" y="370" font-size="8" fill="#1a1a18">· generated_on : DATETIME</text>
<text x="428" y="384" font-size="8" fill="#1a1a18">· total_ctc : DECIMAL(18,2)</text>
<text x="428" y="398" font-size="8" fill="#1a1a18">· is_acknowledged : BIT</text>

<!-- ══ LEGEND  [C4 R3] ══ -->
<rect x="620" y="300" width="180" height="118" rx="4" fill="#F8F7F4" stroke="#C8C6BE" stroke-width="0.8"/>
<rect x="620" y="300" width="180" height="24"  rx="4" fill="#444441"/>
<rect x="620" y="314" width="180" height="10"  fill="#444441"/>
<text x="710" y="317" text-anchor="middle" font-size="9" font-weight="700" fill="white">Notation</text>
<text x="628" y="337" font-size="8" fill="#1a1a18">• PK   Primary Key</text>
<text x="628" y="351" font-size="8" fill="#555">◦ FK   Foreign Key</text>
<line x1="628" y1="364" x2="660" y2="364" stroke="#555" stroke-width="1"/>
<line x1="627" y1="360" x2="627" y2="368" stroke="#555" stroke-width="1"/>
<line x1="657" y1="360" x2="657" y2="368" stroke="#555" stroke-width="1"/>
<text x="664" y="368" font-size="8" fill="#1a1a18">1:1 One-to-One</text>
<line x1="628" y1="380" x2="660" y2="380" stroke="#555" stroke-width="1"/>
<line x1="627" y1="376" x2="627" y2="384" stroke="#555" stroke-width="1"/>
<line x1="656" y1="375" x2="660" y2="380" stroke="#555" stroke-width="1"/>
<line x1="656" y1="385" x2="660" y2="380" stroke="#555" stroke-width="1"/>
<line x1="655" y1="375" x2="655" y2="385" stroke="#555" stroke-width="1"/>
<text x="664" y="384" font-size="8" fill="#1a1a18">1:M One-to-Many</text>
<line x1="628" y1="396" x2="660" y2="396" stroke="#999" stroke-width="0.8" stroke-dasharray="4 2"/>
<text x="664" y="400" font-size="8" fill="#1a1a18">1:M cross-domain FK</text>
<text x="628" y="414" font-size="7" font-style="italic" fill="#666">«Name» = Domain stereotype</text>

<!-- ══ Promotions  [C5 R3] ══ Promotions #4A2D7A  h6=118 -->
<rect x="820" y="300" width="180" height="118" rx="4" fill="white" stroke="#8B77CC" stroke-width="1"/>
<rect x="820" y="300" width="180" height="28"  rx="4" fill="#4A2D7A"/>
<rect x="820" y="314" width="180" height="14"  fill="#4A2D7A"/>
<text x="910" y="312" text-anchor="middle" font-size="7" font-style="italic" fill="#CECBF6">«Promotions»</text>
<text x="910" y="323" text-anchor="middle" font-size="10" font-weight="700" fill="white">PromotionNominations</text>
<line x1="820" y1="328" x2="1000" y2="328" stroke="#8B77CC" stroke-width="0.5"/>
<text x="828" y="342" font-size="8" fill="#1a1a18">• nomination_id : GUID  PK</text>
<text x="828" y="356" font-size="8" fill="#555555">◦ employee_id : GUID  FK</text>
<text x="828" y="370" font-size="8" fill="#555555">◦ promotion_id : GUID  FK</text>
<text x="828" y="384" font-size="8" fill="#555555">◦ nominated_by : GUID  FK</text>
<text x="828" y="398" font-size="8" fill="#1a1a18">· outcome : VARCHAR(20)</text>
<text x="828" y="412" font-size="8" fill="#1a1a18">· nominated_on : DATE</text>

</svg>
