<svg width="700" height="664" viewBox="0 0 700 664" xmlns="http://www.w3.org/2000/svg" font-family="'Segoe UI', Arial, sans-serif">
<defs>
  <marker id="arr" viewBox="0 0 10 10" refX="8" refY="5" markerWidth="5" markerHeight="5" orient="auto-start-reverse">
    <path d="M2 1L8 5L2 9" fill="none" stroke="#888780" stroke-width="1.5" stroke-linecap="round" stroke-linejoin="round"/>
  </marker>
  <marker id="arrd" viewBox="0 0 10 10" refX="8" refY="5" markerWidth="5" markerHeight="5" orient="auto-start-reverse">
    <path d="M2 1L8 5L2 9" fill="none" stroke="#D85A30" stroke-width="1.5" stroke-linecap="round" stroke-linejoin="round"/>
  </marker>
</defs>

<!-- TITLE -->
<text x="350" y="24" text-anchor="middle" font-size="14" font-weight="700" fill="#1a1a18">Unified Rewards Platform — Deployment Architecture</text>
<text x="350" y="40" text-anchor="middle" font-size="10" fill="#5F5E5A">Microsoft Azure  ·  AKS Microservices  ·  Private Virtual Network  ·  Solid = HTTPS / sync   Dashed = async / event / trigger</text>

<!-- INTERNET / CLIENT ZONE -->
<rect x="20" y="48" width="660" height="52" rx="8" fill="#F1EFE8" stroke="#888780" stroke-width="1"/>
<text x="32" y="62" font-size="9" font-weight="700" fill="#2C2C2A">INTERNET · CLIENT ZONE</text>
<rect x="32"  y="67" width="153" height="26" rx="5" fill="#FBFAF6" stroke="#888780" stroke-width="0.6"/>
<text x="108" y="84" text-anchor="middle" font-size="8.5" font-weight="600" fill="#2C2C2A">Finance / Audit</text>
<rect x="193" y="67" width="153" height="26" rx="5" fill="#FBFAF6" stroke="#888780" stroke-width="0.6"/>
<text x="269" y="84" text-anchor="middle" font-size="8.5" font-weight="600" fill="#2C2C2A">HR Admin</text>
<rect x="354" y="67" width="153" height="26" rx="5" fill="#FBFAF6" stroke="#888780" stroke-width="0.6"/>
<text x="430" y="84" text-anchor="middle" font-size="8.5" font-weight="600" fill="#2C2C2A">Manager</text>
<rect x="515" y="67" width="153" height="26" rx="5" fill="#FBFAF6" stroke="#888780" stroke-width="0.6"/>
<text x="591" y="84" text-anchor="middle" font-size="8.5" font-weight="600" fill="#2C2C2A">Employee</text>
<line x1="350" y1="100" x2="350" y2="114" stroke="#888780" stroke-width="1" marker-end="url(#arr)"/>
<text x="360" y="110" font-size="7" fill="#888780">HTTPS</text>

<!-- AZURE EDGE -->
<rect x="20" y="114" width="660" height="86" rx="8" fill="#E1F5EE" stroke="#0F6E56" stroke-width="1"/>
<text x="32" y="128" font-size="9" font-weight="700" fill="#085041">AZURE EDGE · CDN · WAF · STATIC HOSTING — 5 Independent SWA Deployments · own CI/CD per app</text>
<rect x="32" y="133" width="636" height="24" rx="5" fill="#C9EEE1" stroke="#0F6E56" stroke-width="0.6"/>
<text x="350" y="148" text-anchor="middle" font-size="8" font-weight="600" fill="#085041">Azure Front Door — Global Load Balancer · WAF Policy · DDoS Protection · SSL/TLS · Geo-routing</text>
<rect x="32"  y="163" width="120" height="30" rx="4" fill="#C9EEE1" stroke="#0F6E56" stroke-width="0.6"/>
<text x="92"  y="176" text-anchor="middle" font-size="8" font-weight="600" fill="#085041">Shell Host</text>
<text x="92"  y="187" text-anchor="middle" font-size="7" fill="#0F6E56">Azure Static Web App</text>
<rect x="161" y="163" width="120" height="30" rx="4" fill="#C9EEE1" stroke="#0F6E56" stroke-width="0.6"/>
<text x="221" y="176" text-anchor="middle" font-size="8" font-weight="600" fill="#085041">Employee Remote</text>
<text x="221" y="187" text-anchor="middle" font-size="7" fill="#0F6E56">Static Web App</text>
<rect x="290" y="163" width="120" height="30" rx="4" fill="#C9EEE1" stroke="#0F6E56" stroke-width="0.6"/>
<text x="350" y="176" text-anchor="middle" font-size="8" font-weight="600" fill="#085041">Manager Remote</text>
<text x="350" y="187" text-anchor="middle" font-size="7" fill="#0F6E56">Static Web App</text>
<rect x="419" y="163" width="120" height="30" rx="4" fill="#C9EEE1" stroke="#0F6E56" stroke-width="0.6"/>
<text x="479" y="176" text-anchor="middle" font-size="8" font-weight="600" fill="#085041">HR Admin Remote</text>
<text x="479" y="187" text-anchor="middle" font-size="7" fill="#0F6E56">Static Web App</text>
<rect x="548" y="163" width="120" height="30" rx="4" fill="#C9EEE1" stroke="#0F6E56" stroke-width="0.6"/>
<text x="608" y="176" text-anchor="middle" font-size="8" font-weight="600" fill="#085041">Finance Remote</text>
<text x="608" y="187" text-anchor="middle" font-size="7" fill="#0F6E56">Static Web App</text>
<line x1="350" y1="200" x2="350" y2="214" stroke="#888780" stroke-width="1" marker-end="url(#arr)"/>
<text x="360" y="210" font-size="7" fill="#888780">REST / JSON + JWT Bearer</text>

<!-- API GATEWAY -->
<rect x="20" y="214" width="660" height="44" rx="8" fill="#EEEDFE" stroke="#534AB7" stroke-width="1"/>
<text x="32" y="230" font-size="9" font-weight="700" fill="#3C3489">API GATEWAY · Azure API Management (APIM)</text>
<text x="32" y="245" font-size="8" fill="#3C3489">Rate Limiting · API Versioning · Auth Offload · CORS · Subscription Keys · Developer Portal · VNet Integration</text>
<line x1="350" y1="258" x2="350" y2="272" stroke="#888780" stroke-width="1" marker-end="url(#arr)"/>
<text x="360" y="268" font-size="7" fill="#888780">Private Link · routes to AKS per microservice</text>

<!-- AZURE VIRTUAL NETWORK (wrapper) -->
<rect x="20" y="272" width="660" height="210" rx="10" fill="#F4F8FC" stroke="#185FA5" stroke-width="1.2" stroke-dasharray="6 3"/>
<text x="32" y="287" font-size="9" font-weight="700" fill="#0C447C">AZURE VIRTUAL NETWORK · Private</text>

<!-- AKS CLUSTER -->
<rect x="32" y="292" width="636" height="98" rx="8" fill="#E6F1FB" stroke="#185FA5" stroke-width="1"/>
<text x="42" y="306" font-size="8.5" font-weight="700" fill="#0C447C">AKS CLUSTER · Application Subnet · HPA: 2–10 pods per service</text>
<text x="42" y="318" font-size="7" fill="#185FA5">JWT Middleware: AddJwtBearer() · Token | Expiry | Issuer · [Authorize(Roles=...)] on all services</text>
<rect x="42"  y="322" width="84" height="60" rx="5" fill="#B5D4F4" stroke="#185FA5" stroke-width="0.5"/>
<text x="84"  y="337" text-anchor="middle" font-size="8" font-weight="600" fill="#042C53">User Mgmt</text>
<text x="84"  y="350" text-anchor="middle" font-size="7" fill="#0C447C">+ Promotions</text>
<text x="84"  y="362" text-anchor="middle" font-size="7" fill="#0C447C">/users</text>
<rect x="131" y="322" width="84" height="60" rx="5" fill="#B5D4F4" stroke="#185FA5" stroke-width="0.5"/>
<text x="173" y="337" text-anchor="middle" font-size="8" font-weight="600" fill="#042C53">Benefits</text>
<text x="173" y="350" text-anchor="middle" font-size="7" fill="#0C447C">Svc</text>
<text x="173" y="362" text-anchor="middle" font-size="7" fill="#0C447C">/benefits</text>
<rect x="220" y="322" width="84" height="60" rx="5" fill="#B5D4F4" stroke="#185FA5" stroke-width="0.5"/>
<text x="262" y="337" text-anchor="middle" font-size="8" font-weight="600" fill="#042C53">Compensation</text>
<text x="262" y="350" text-anchor="middle" font-size="7" fill="#0C447C">NRules Engine</text>
<text x="262" y="362" text-anchor="middle" font-size="7" fill="#0C447C">/compensation</text>
<rect x="309" y="322" width="84" height="60" rx="5" fill="#B5D4F4" stroke="#185FA5" stroke-width="0.5"/>
<text x="351" y="337" text-anchor="middle" font-size="8" font-weight="600" fill="#042C53">Claims</text>
<text x="351" y="350" text-anchor="middle" font-size="7" fill="#0C447C">State Machine</text>
<text x="351" y="362" text-anchor="middle" font-size="7" fill="#0C447C">/claims</text>
<rect x="398" y="322" width="84" height="60" rx="5" fill="#B5D4F4" stroke="#185FA5" stroke-width="0.5"/>
<text x="440" y="337" text-anchor="middle" font-size="8" font-weight="600" fill="#042C53">Payroll</text>
<text x="440" y="350" text-anchor="middle" font-size="7" fill="#0C447C">Polly 3× Retry</text>
<text x="440" y="362" text-anchor="middle" font-size="7" fill="#0C447C">/payroll</text>
<rect x="487" y="322" width="84" height="60" rx="5" fill="#B5D4F4" stroke="#185FA5" stroke-width="0.5"/>
<text x="529" y="337" text-anchor="middle" font-size="8" font-weight="600" fill="#042C53">Documents</text>
<text x="529" y="350" text-anchor="middle" font-size="7" fill="#0C447C">OCR · Tesseract</text>
<text x="529" y="362" text-anchor="middle" font-size="7" fill="#0C447C">/documents</text>
<rect x="576" y="322" width="84" height="60" rx="5" fill="#B5D4F4" stroke="#185FA5" stroke-width="0.5"/>
<text x="618" y="337" text-anchor="middle" font-size="8" font-weight="600" fill="#042C53">Reporting &amp; Audit</text>
<text x="618" y="350" text-anchor="middle" font-size="7" fill="#0C447C">LINQ+ClosedXML</text>
<text x="618" y="362" text-anchor="middle" font-size="7" fill="#0C447C">/reports</text>

<!-- DATA SUBNET -->
<rect x="32" y="398" width="636" height="78" rx="8" fill="#FAEEDA" stroke="#854F0B" stroke-width="1"/>
<text x="42" y="412" font-size="8.5" font-weight="700" fill="#412402">DATA SUBNET · Private Endpoints · No Public Internet Access</text>
<rect x="42"  y="417" width="120" height="52" rx="5" fill="#FAC775" stroke="#BA7517" stroke-width="0.5"/>
<text x="102" y="431" text-anchor="middle" font-size="8" font-weight="600" fill="#412402">Azure SQL</text>
<text x="102" y="443" text-anchor="middle" font-size="7" fill="#633806">Claims·Emp·Payroll</text>
<text x="102" y="455" text-anchor="middle" font-size="7" fill="#412402">Zone-Red + Geo</text>
<rect x="171" y="417" width="120" height="52" rx="5" fill="#FAC775" stroke="#BA7517" stroke-width="0.5"/>
<text x="231" y="431" text-anchor="middle" font-size="8" font-weight="600" fill="#412402">Cosmos DB</text>
<text x="231" y="443" text-anchor="middle" font-size="7" fill="#633806">Benefits · Rules</text>
<text x="231" y="455" text-anchor="middle" font-size="7" fill="#412402">Multi-region write</text>
<rect x="300" y="417" width="120" height="52" rx="5" fill="#FAC775" stroke="#BA7517" stroke-width="0.5"/>
<text x="360" y="431" text-anchor="middle" font-size="8" font-weight="600" fill="#412402">Redis Cache</text>
<text x="360" y="443" text-anchor="middle" font-size="7" fill="#633806">TTL 15/30/60 min</text>
<text x="360" y="455" text-anchor="middle" font-size="7" fill="#412402">Premium · Zone-Red</text>
<rect x="429" y="417" width="120" height="52" rx="5" fill="#FAC775" stroke="#BA7517" stroke-width="0.5"/>
<text x="489" y="431" text-anchor="middle" font-size="8" font-weight="600" fill="#412402">Blob Storage</text>
<text x="489" y="443" text-anchor="middle" font-size="7" fill="#633806">Receipts · Docs</text>
<text x="489" y="455" text-anchor="middle" font-size="7" fill="#412402">Geo-Redundant (GRS)</text>
<rect x="558" y="417" width="102" height="52" rx="5" fill="#FAC775" stroke="#BA7517" stroke-width="0.5"/>
<text x="609" y="431" text-anchor="middle" font-size="8" font-weight="600" fill="#412402">Key Vault</text>
<text x="609" y="443" text-anchor="middle" font-size="7" fill="#633806">JWT · Conn.str</text>
<text x="609" y="455" text-anchor="middle" font-size="7" fill="#412402">Managed Identity</text>

<line x1="350" y1="482" x2="350" y2="496" stroke="#888780" stroke-width="1" marker-end="url(#arr)"/>

<!-- AZURE MANAGED SERVICES -->
<rect x="20" y="496" width="660" height="84" rx="8" fill="#FAECE7" stroke="#993C1D" stroke-width="1"/>
<text x="32" y="510" font-size="9" font-weight="700" fill="#4A1B0C">AZURE MANAGED SERVICES · PaaS · Serverless</text>
<rect x="32"  y="515" width="101" height="58" rx="4" fill="#F5C4B3" stroke="#D85A30" stroke-width="0.5"/>
<text x="82"  y="528" text-anchor="middle" font-size="7.5" font-weight="600" fill="#4A1B0C">Azure AD / Entra</text>
<text x="82"  y="540" text-anchor="middle" font-size="7" fill="#71270F">SSO · MFA · RBAC</text>
<text x="82"  y="551" text-anchor="middle" font-size="7" fill="#71270F">Managed Identity</text>
<rect x="139" y="515" width="101" height="58" rx="4" fill="#F5C4B3" stroke="#D85A30" stroke-width="0.5"/>
<text x="189" y="528" text-anchor="middle" font-size="7.5" font-weight="600" fill="#4A1B0C">Service Bus</text>
<text x="189" y="540" text-anchor="middle" font-size="7" fill="#71270F">Workflow Events</text>
<text x="189" y="551" text-anchor="middle" font-size="7" fill="#71270F">Claim topics</text>
<rect x="246" y="515" width="101" height="58" rx="4" fill="#F5C4B3" stroke="#D85A30" stroke-width="0.5"/>
<text x="296" y="528" text-anchor="middle" font-size="7.5" font-weight="600" fill="#4A1B0C">Event Hub</text>
<text x="296" y="540" text-anchor="middle" font-size="7" fill="#71270F">Audit &amp; Compliance</text>
<text x="296" y="551" text-anchor="middle" font-size="7" fill="#71270F">Append-only stream</text>
<rect x="353" y="515" width="101" height="58" rx="4" fill="#F5C4B3" stroke="#D85A30" stroke-width="0.5"/>
<text x="403" y="528" text-anchor="middle" font-size="7.5" font-weight="600" fill="#4A1B0C">Azure Functions</text>
<text x="403" y="540" text-anchor="middle" font-size="7" fill="#71270F">Blob:OCR · Timer:Rpt</text>
<text x="403" y="551" text-anchor="middle" font-size="7" fill="#71270F">Queue: Payroll</text>
<rect x="460" y="515" width="101" height="58" rx="4" fill="#F5C4B3" stroke="#D85A30" stroke-width="0.5"/>
<text x="510" y="528" text-anchor="middle" font-size="7.5" font-weight="600" fill="#4A1B0C">Comm. Services</text>
<text x="510" y="540" text-anchor="middle" font-size="7" fill="#71270F">Email Notifications</text>
<text x="510" y="551" text-anchor="middle" font-size="7" fill="#71270F">Claim alerts</text>
<rect x="567" y="515" width="93" height="58" rx="4" fill="#F5C4B3" stroke="#D85A30" stroke-width="0.5"/>
<text x="613" y="528" text-anchor="middle" font-size="7.5" font-weight="600" fill="#4A1B0C">Azure Monitor</text>
<text x="613" y="540" text-anchor="middle" font-size="7" fill="#71270F">App Insights</text>
<text x="613" y="551" text-anchor="middle" font-size="7" fill="#71270F">Metrics · Traces</text>

<!-- EXTERNAL 3rd PARTY -->
<rect x="20" y="592" width="660" height="48" rx="8" fill="#FEF6F2" stroke="#D85A30" stroke-width="1" stroke-dasharray="5 2"/>
<text x="32" y="606" font-size="9" font-weight="700" fill="#993C1D">EXTERNAL · 3rd-PARTY SYSTEM</text>
<rect x="310" y="611" width="260" height="22" rx="5" fill="#FEEDE5" stroke="#D85A30" stroke-width="0.6" stroke-dasharray="4 2"/>
<text x="440" y="625" text-anchor="middle" font-size="8" font-weight="600" fill="#993C1D">Payroll System (SAP / ADP / Workday) · REST API · Employee data feed</text>
<line x1="440" y1="382" x2="440" y2="611" stroke="#D85A30" stroke-width="1" stroke-dasharray="4 2" marker-end="url(#arrd)" marker-start="url(#arrd)"/>

</svg>
