<svg width="700" height="620" viewBox="0 0 700 620" xmlns="http://www.w3.org/2000/svg" font-family="'Segoe UI', Arial, sans-serif">
<defs>
  <marker id="arr" viewBox="0 0 10 10" refX="8" refY="5" markerWidth="5" markerHeight="5" orient="auto-start-reverse">
    <path d="M2 1L8 5L2 9" fill="none" stroke="#888780" stroke-width="1.5" stroke-linecap="round" stroke-linejoin="round"/>
  </marker>
</defs>

<!-- TITLE -->
<text x="350" y="24" text-anchor="middle" font-size="14" font-weight="700" fill="#1a1a18">Unified Rewards Platform — Logical Architecture</text>
<text x="350" y="40" text-anchor="middle" font-size="10" fill="#5F5E5A">5-Layer System View · Cross-Cutting Concerns  ·  ASP.NET Core 8 · React 18 (Module Federation) · EF Core 8 · Azure</text>

<!-- L1 CLIENT & CHANNELS -->
<rect x="20" y="50" width="660" height="58" rx="8" fill="#F1EFE8" stroke="#888780" stroke-width="1"/>
<text x="32" y="65" font-size="9" font-weight="700" fill="#2C2C2A">L1 · CLIENT &amp; CHANNELS</text>
<rect x="32" y="70" width="312" height="32" rx="5" fill="#FBFAF6" stroke="#888780" stroke-width="0.6"/>
<text x="188" y="83" text-anchor="middle" font-size="9" font-weight="600" fill="#2C2C2A">Browser / Device</text>
<text x="188" y="95" text-anchor="middle" font-size="7.5" fill="#5F5E5A">Employee · Manager · HR Admin · Finance/Audit</text>
<rect x="356" y="70" width="312" height="32" rx="5" fill="#FBFAF6" stroke="#888780" stroke-width="0.6"/>
<text x="512" y="83" text-anchor="middle" font-size="9" font-weight="600" fill="#2C2C2A">Azure Front Door</text>
<text x="512" y="95" text-anchor="middle" font-size="7.5" fill="#5F5E5A">WAF · CDN · SSL/TLS · Geo-routing</text>
<line x1="350" y1="108" x2="350" y2="122" stroke="#888780" stroke-width="1" marker-end="url(#arr)"/>

<!-- L2 PRESENTATION -->
<rect x="20" y="122" width="660" height="80" rx="8" fill="#E1F5EE" stroke="#0F6E56" stroke-width="1"/>
<text x="32" y="137" font-size="9" font-weight="700" fill="#085041">L2 · PRESENTATION — Micro Frontends (Webpack 5 Module Federation)</text>
<text x="32" y="149" font-size="7.5" fill="#0F6E56">Shell Host loads role-based remotes  ·  Shared singletons: react · react-dom · @mui/material · Axios  ·  Azure Static Web Apps</text>
<rect x="32"  y="154" width="120" height="42" rx="5" fill="#C9EEE1" stroke="#0F6E56" stroke-width="0.6"/>
<text x="92"  y="169" text-anchor="middle" font-size="8" font-weight="600" fill="#085041">Shell Host</text>
<text x="92"  y="181" text-anchor="middle" font-size="7" fill="#0F6E56">Router · JWT · :3000</text>
<text x="92"  y="191" text-anchor="middle" font-size="7" fill="#1D9E75">Role Routing</text>
<rect x="161" y="154" width="120" height="42" rx="5" fill="#C9EEE1" stroke="#0F6E56" stroke-width="0.6"/>
<text x="221" y="169" text-anchor="middle" font-size="8" font-weight="600" fill="#085041">Employee Remote</text>
<text x="221" y="181" text-anchor="middle" font-size="7" fill="#0F6E56">Self-Service :3001</text>
<text x="221" y="191" text-anchor="middle" font-size="7" fill="#1D9E75">own CI/CD</text>
<rect x="290" y="154" width="120" height="42" rx="5" fill="#C9EEE1" stroke="#0F6E56" stroke-width="0.6"/>
<text x="350" y="169" text-anchor="middle" font-size="8" font-weight="600" fill="#085041">Manager Remote</text>
<text x="350" y="181" text-anchor="middle" font-size="7" fill="#0F6E56">Approval :3002</text>
<text x="350" y="191" text-anchor="middle" font-size="7" fill="#1D9E75">own CI/CD</text>
<rect x="419" y="154" width="120" height="42" rx="5" fill="#C9EEE1" stroke="#0F6E56" stroke-width="0.6"/>
<text x="479" y="169" text-anchor="middle" font-size="8" font-weight="600" fill="#085041">HR Admin Remote</text>
<text x="479" y="181" text-anchor="middle" font-size="7" fill="#0F6E56">Console :3003</text>
<text x="479" y="191" text-anchor="middle" font-size="7" fill="#1D9E75">own CI/CD</text>
<rect x="548" y="154" width="120" height="42" rx="5" fill="#C9EEE1" stroke="#0F6E56" stroke-width="0.6"/>
<text x="608" y="169" text-anchor="middle" font-size="8" font-weight="600" fill="#085041">Finance Remote</text>
<text x="608" y="181" text-anchor="middle" font-size="7" fill="#0F6E56">Audit :3004</text>
<text x="608" y="191" text-anchor="middle" font-size="7" fill="#1D9E75">own CI/CD</text>
<line x1="350" y1="202" x2="350" y2="216" stroke="#888780" stroke-width="1" marker-end="url(#arr)"/>
<text x="360" y="212" font-size="7" fill="#888780">REST / JSON + JWT Bearer</text>

<!-- L3 API GATEWAY -->
<rect x="20" y="216" width="660" height="64" rx="8" fill="#EEEDFE" stroke="#534AB7" stroke-width="1"/>
<text x="32" y="231" font-size="9" font-weight="700" fill="#3C3489">L3 · API GATEWAY — Azure APIM [cloud]  /  direct localhost:5001 [local dev, no gateway]</text>
<rect x="32"  y="237" width="120" height="36" rx="4" fill="#DEDCFB" stroke="#534AB7" stroke-width="0.6"/>
<text x="92"  y="251" text-anchor="middle" font-size="8" font-weight="600" fill="#3C3489">Auth Offload</text>
<text x="92"  y="263" text-anchor="middle" font-size="7" fill="#534AB7">JWT validation</text>
<rect x="161" y="237" width="120" height="36" rx="4" fill="#DEDCFB" stroke="#534AB7" stroke-width="0.6"/>
<text x="221" y="251" text-anchor="middle" font-size="8" font-weight="600" fill="#3C3489">Rate Limiting</text>
<text x="221" y="263" text-anchor="middle" font-size="7" fill="#534AB7">Throttling</text>
<rect x="290" y="237" width="120" height="36" rx="4" fill="#DEDCFB" stroke="#534AB7" stroke-width="0.6"/>
<text x="350" y="251" text-anchor="middle" font-size="8" font-weight="600" fill="#3C3489">API Versioning</text>
<text x="350" y="263" text-anchor="middle" font-size="7" fill="#534AB7">/api/v1/</text>
<rect x="419" y="237" width="120" height="36" rx="4" fill="#DEDCFB" stroke="#534AB7" stroke-width="0.6"/>
<text x="479" y="251" text-anchor="middle" font-size="8" font-weight="600" fill="#3C3489">CORS &amp; Routing</text>
<text x="479" y="263" text-anchor="middle" font-size="7" fill="#534AB7">to AKS pods</text>
<rect x="548" y="237" width="120" height="36" rx="4" fill="#DEDCFB" stroke="#534AB7" stroke-width="0.6"/>
<text x="608" y="251" text-anchor="middle" font-size="8" font-weight="600" fill="#3C3489">IP Allow-list</text>
<text x="608" y="263" text-anchor="middle" font-size="7" fill="#534AB7">&amp; Monitoring</text>
<line x1="350" y1="280" x2="350" y2="294" stroke="#888780" stroke-width="1" marker-end="url(#arr)"/>

<!-- L4 APPLICATION SERVICES -->
<rect x="20" y="294" width="660" height="118" rx="8" fill="#E6F1FB" stroke="#185FA5" stroke-width="1"/>
<text x="32" y="309" font-size="9" font-weight="700" fill="#0C447C">L4 · APPLICATION SERVICES — 7 Modules · ASP.NET Core 8 · CQRS (one AKS microservice per module)</text>
<rect x="32"  y="314" width="84" height="56" rx="5" fill="#B5D4F4" stroke="#185FA5" stroke-width="0.5"/>
<text x="74"  y="330" text-anchor="middle" font-size="8" font-weight="600" fill="#042C53">User Mgmt</text>
<text x="74"  y="343" text-anchor="middle" font-size="7" fill="#0C447C">Profile · Org</text>
<text x="74"  y="355" text-anchor="middle" font-size="7" fill="#0C447C">Stateless</text>
<rect x="124" y="314" width="84" height="56" rx="5" fill="#B5D4F4" stroke="#185FA5" stroke-width="0.5"/>
<text x="166" y="330" text-anchor="middle" font-size="8" font-weight="600" fill="#042C53">Benefits</text>
<text x="166" y="343" text-anchor="middle" font-size="7" fill="#0C447C">Catalogue</text>
<text x="166" y="355" text-anchor="middle" font-size="7" fill="#0C447C">+ Enrollments</text>
<rect x="216" y="314" width="84" height="56" rx="5" fill="#B5D4F4" stroke="#185FA5" stroke-width="0.5"/>
<text x="258" y="330" text-anchor="middle" font-size="8" font-weight="600" fill="#042C53">Compensation</text>
<text x="258" y="343" text-anchor="middle" font-size="7" fill="#0C447C">NRules Engine</text>
<text x="258" y="355" text-anchor="middle" font-size="7" fill="#0C447C">CTC · Bonus</text>
<rect x="308" y="314" width="84" height="56" rx="5" fill="#B5D4F4" stroke="#185FA5" stroke-width="0.5"/>
<text x="350" y="330" text-anchor="middle" font-size="8" font-weight="600" fill="#042C53">Claims &amp; Docs</text>
<text x="350" y="343" text-anchor="middle" font-size="7" fill="#0C447C">State Machine</text>
<text x="350" y="355" text-anchor="middle" font-size="7" fill="#0C447C">OCR · Stateful</text>
<rect x="400" y="314" width="84" height="56" rx="5" fill="#B5D4F4" stroke="#185FA5" stroke-width="0.5"/>
<text x="442" y="330" text-anchor="middle" font-size="8" font-weight="600" fill="#042C53">Payroll</text>
<text x="442" y="343" text-anchor="middle" font-size="7" fill="#0C447C">HttpClient+Polly</text>
<text x="442" y="355" text-anchor="middle" font-size="7" fill="#0C447C">Settlement</text>
<rect x="492" y="314" width="84" height="56" rx="5" fill="#B5D4F4" stroke="#185FA5" stroke-width="0.5"/>
<text x="534" y="330" text-anchor="middle" font-size="8" font-weight="600" fill="#042C53">Promotions</text>
<text x="534" y="343" text-anchor="middle" font-size="7" fill="#0C447C">Nomination</text>
<text x="534" y="355" text-anchor="middle" font-size="7" fill="#0C447C">Eligibility</text>
<rect x="584" y="314" width="84" height="56" rx="5" fill="#B5D4F4" stroke="#185FA5" stroke-width="0.5"/>
<text x="626" y="330" text-anchor="middle" font-size="8" font-weight="600" fill="#042C53">Reporting &amp; Audit</text>
<text x="626" y="343" text-anchor="middle" font-size="7" fill="#0C447C">LINQ+ClosedXML</text>
<text x="626" y="355" text-anchor="middle" font-size="7" fill="#0C447C">Audit trail</text>
<rect x="32" y="376" width="636" height="28" rx="5" fill="#DCE9F8" stroke="#185FA5" stroke-width="0.6"/>
<text x="350" y="393" text-anchor="middle" font-size="8" font-weight="600" fill="#0C447C">MediatR CQRS (Commands · Queries · Handlers)  ·  FluentValidation  ·  Serilog  ·  [Authorize(Roles)] RBAC</text>
<line x1="350" y1="412" x2="350" y2="426" stroke="#888780" stroke-width="1" marker-end="url(#arr)"/>

<!-- L5 DATA & PERSISTENCE -->
<rect x="20" y="426" width="660" height="88" rx="8" fill="#FAEEDA" stroke="#854F0B" stroke-width="1"/>
<text x="32" y="441" font-size="9" font-weight="700" fill="#412402">L5 · DATA &amp; PERSISTENCE — EF Core 8 Provider Model  (cloud target · local equivalents shown in [ ])</text>
<rect x="32"  y="446" width="120" height="60" rx="6" fill="#FAC775" stroke="#BA7517" stroke-width="0.5"/>
<text x="92"  y="461" text-anchor="middle" font-size="8" font-weight="600" fill="#412402">Azure SQL</text>
<text x="92"  y="473" text-anchor="middle" font-size="7" fill="#633806">[SQLite local]</text>
<text x="92"  y="485" text-anchor="middle" font-size="7" fill="#412402">Claims · Employees</text>
<text x="92"  y="496" text-anchor="middle" font-size="7" fill="#412402">Payroll</text>
<rect x="161" y="446" width="120" height="60" rx="6" fill="#FAC775" stroke="#BA7517" stroke-width="0.5"/>
<text x="221" y="461" text-anchor="middle" font-size="8" font-weight="600" fill="#412402">Cosmos DB</text>
<text x="221" y="473" text-anchor="middle" font-size="7" fill="#633806">[EF In-Memory local]</text>
<text x="221" y="485" text-anchor="middle" font-size="7" fill="#412402">Benefits · Rules</text>
<rect x="290" y="446" width="120" height="60" rx="6" fill="#FAC775" stroke="#BA7517" stroke-width="0.5"/>
<text x="350" y="461" text-anchor="middle" font-size="8" font-weight="600" fill="#412402">Redis Cache</text>
<text x="350" y="473" text-anchor="middle" font-size="7" fill="#633806">[IMemoryCache local]</text>
<text x="350" y="485" text-anchor="middle" font-size="7" fill="#412402">TTL 15/30/60 min</text>
<rect x="419" y="446" width="120" height="60" rx="6" fill="#FAC775" stroke="#BA7517" stroke-width="0.5"/>
<text x="479" y="461" text-anchor="middle" font-size="8" font-weight="600" fill="#412402">Blob Storage</text>
<text x="479" y="473" text-anchor="middle" font-size="7" fill="#633806">[Local FS local]</text>
<text x="479" y="485" text-anchor="middle" font-size="7" fill="#412402">Receipts · Docs</text>
<rect x="548" y="446" width="120" height="60" rx="6" fill="#FAC775" stroke="#BA7517" stroke-width="0.5"/>
<text x="608" y="461" text-anchor="middle" font-size="8" font-weight="600" fill="#412402">Key Vault</text>
<text x="608" y="473" text-anchor="middle" font-size="7" fill="#633806">[user-secrets local]</text>
<text x="608" y="485" text-anchor="middle" font-size="7" fill="#412402">JWT key · Conn.str</text>

<!-- CROSS-CUTTING -->
<rect x="20" y="522" width="660" height="74" rx="8" fill="#FAECE7" stroke="#993C1D" stroke-width="1"/>
<text x="32" y="537" font-size="9" font-weight="700" fill="#4A1B0C">CROSS-CUTTING CONCERNS</text>
<rect x="32"  y="542" width="153" height="30" rx="4" fill="#F5C4B3" stroke="#D85A30" stroke-width="0.5"/>
<text x="108" y="555" text-anchor="middle" font-size="8" font-weight="600" fill="#4A1B0C">Identity &amp; Access</text>
<text x="108" y="566" text-anchor="middle" font-size="6.5" fill="#71270F">Azure AD/Entra · SSO·MFA · [ASP.NET Identity local]</text>
<rect x="193" y="542" width="153" height="30" rx="4" fill="#F5C4B3" stroke="#D85A30" stroke-width="0.5"/>
<text x="269" y="555" text-anchor="middle" font-size="8" font-weight="600" fill="#4A1B0C">Messaging &amp; Events</text>
<text x="269" y="566" text-anchor="middle" font-size="6.5" fill="#71270F">Azure Service Bus / Event Hub · [MediatR local]</text>
<rect x="354" y="542" width="153" height="30" rx="4" fill="#F5C4B3" stroke="#D85A30" stroke-width="0.5"/>
<text x="430" y="555" text-anchor="middle" font-size="8" font-weight="600" fill="#4A1B0C">Notifications</text>
<text x="430" y="566" text-anchor="middle" font-size="6.5" fill="#71270F">Azure Comm. Services · [smtp4dev local]</text>
<rect x="515" y="542" width="153" height="30" rx="4" fill="#F5C4B3" stroke="#D85A30" stroke-width="0.5"/>
<text x="591" y="555" text-anchor="middle" font-size="8" font-weight="600" fill="#4A1B0C">Observability</text>
<text x="591" y="566" text-anchor="middle" font-size="6.5" fill="#71270F">Serilog · Azure Monitor · App Insights</text>
<text x="32" y="588" font-size="7" fill="#71270F">External: Payroll System (SAP / ADP / Workday) via IPayrollService anti-corruption adapter — WireMock.Net [local] · Real REST API [cloud]</text>

</svg>
