<svg width="1220" height="630" viewBox="0 0 1220 630" xmlns="http://www.w3.org/2000/svg" font-family="'Segoe UI', Arial, sans-serif">
<defs>
  <marker id="arr" viewBox="0 0 10 10" refX="8" refY="5" markerWidth="5" markerHeight="5" orient="auto-start-reverse">
    <path d="M2 1L8 5L2 9" fill="none" stroke="#185FA5" stroke-width="1.5" stroke-linecap="round" stroke-linejoin="round"/>
  </marker>
</defs>

<text x="610" y="24" text-anchor="middle" font-size="14" font-weight="700" fill="#1a1a18">Component 02 — Backend Microservices · ASP.NET Core 8 · MediatR CQRS · AKS</text>
<text x="610" y="40" text-anchor="middle" font-size="10" fill="#5F5E5A">7 modules, one microservice each: User Management · Benefits · Compensation · Claims &amp; Documents · Payroll · Promotions · Reporting &amp; Audit</text>

<!-- SHARED INFRASTRUCTURE -->
<rect x="20" y="50" width="1180" height="54" rx="8" fill="#EEEDFE" stroke="#534AB7" stroke-width="1"/>
<text x="32" y="65" font-size="9" font-weight="700" fill="#3C3489">SHARED INFRASTRUCTURE  ·  Applied to all 7 services</text>
<rect x="32"  y="72" width="278" height="26" rx="4" fill="#DEDCFB" stroke="#534AB7" stroke-width="0.6"/>
<text x="171" y="85" text-anchor="middle" font-size="8" font-weight="600" fill="#3C3489">JWT Middleware</text>
<text x="171" y="95" text-anchor="middle" font-size="7" fill="#534AB7">[Authorize] on all endpoints</text>
<rect x="320" y="72" width="278" height="26" rx="4" fill="#DEDCFB" stroke="#534AB7" stroke-width="0.6"/>
<text x="459" y="85" text-anchor="middle" font-size="8" font-weight="600" fill="#3C3489">FluentValidation</text>
<text x="459" y="95" text-anchor="middle" font-size="7" fill="#534AB7">Request validation</text>
<rect x="608" y="72" width="278" height="26" rx="4" fill="#DEDCFB" stroke="#534AB7" stroke-width="0.6"/>
<text x="747" y="85" text-anchor="middle" font-size="8" font-weight="600" fill="#3C3489">Serilog</text>
<text x="747" y="95" text-anchor="middle" font-size="7" fill="#534AB7">Structured logging</text>
<rect x="896" y="72" width="292" height="26" rx="4" fill="#DEDCFB" stroke="#534AB7" stroke-width="0.6"/>
<text x="1042" y="85" text-anchor="middle" font-size="8" font-weight="600" fill="#3C3489">EF Core 8</text>
<text x="1042" y="95" text-anchor="middle" font-size="7" fill="#534AB7">Provider-agnostic ORM</text>

<!-- CORE HR SERVICES CLUSTER -->
<rect x="20" y="116" width="585" height="226" rx="8" fill="#E6F1FB" stroke="#185FA5" stroke-width="1"/>
<text x="32" y="131" font-size="9" font-weight="700" fill="#0C447C">CORE HR SERVICES — synchronous · cached</text>

<!-- User Management -->
<rect x="30" y="140" width="180" height="190" rx="6" fill="#D7E7F8" stroke="#185FA5" stroke-width="0.8"/>
<text x="120" y="156" text-anchor="middle" font-size="8.5" font-weight="700" fill="#0C447C">User Management</text>
<text x="120" y="168" text-anchor="middle" font-size="7" fill="#185FA5">/api/v1/users</text>
<rect x="42" y="174" width="156" height="30" rx="4" fill="#B5D4F4" stroke="#185FA5" stroke-width="0.5"/>
<text x="120" y="187" text-anchor="middle" font-size="7.5" font-weight="600" fill="#042C53">Controller</text>
<text x="120" y="198" text-anchor="middle" font-size="7" fill="#0C447C">-&gt; ISender.Send()</text>
<rect x="42" y="210" width="156" height="30" rx="4" fill="#B5D4F4" stroke="#185FA5" stroke-width="0.5"/>
<text x="120" y="223" text-anchor="middle" font-size="7.5" font-weight="600" fill="#042C53">Query / Command Handlers</text>
<text x="120" y="234" text-anchor="middle" font-size="7" fill="#0C447C">MediatR</text>
<rect x="42" y="246" width="156" height="30" rx="4" fill="#B5D4F4" stroke="#185FA5" stroke-width="0.5"/>
<text x="120" y="259" text-anchor="middle" font-size="7.5" font-weight="600" fill="#042C53">IMemoryCache</text>
<text x="120" y="270" text-anchor="middle" font-size="7" fill="#0C447C">TTL 15 min</text>
<rect x="42" y="282" width="156" height="30" rx="4" fill="#B5D4F4" stroke="#185FA5" stroke-width="0.5"/>
<text x="120" y="295" text-anchor="middle" font-size="7.5" font-weight="600" fill="#042C53">User Repository</text>
<text x="120" y="306" text-anchor="middle" font-size="7" fill="#0C447C">EF Core | SQL</text>

<!-- Benefits -->
<rect x="218" y="140" width="180" height="190" rx="6" fill="#D7E7F8" stroke="#185FA5" stroke-width="0.8"/>
<text x="308" y="156" text-anchor="middle" font-size="8.5" font-weight="700" fill="#0C447C">Benefits</text>
<text x="308" y="168" text-anchor="middle" font-size="7" fill="#185FA5">/api/v1/benefits</text>
<rect x="230" y="174" width="156" height="30" rx="4" fill="#B5D4F4" stroke="#185FA5" stroke-width="0.5"/>
<text x="308" y="187" text-anchor="middle" font-size="7.5" font-weight="600" fill="#042C53">Controller</text>
<text x="308" y="198" text-anchor="middle" font-size="7" fill="#0C447C">-&gt; ISender.Send()</text>
<rect x="230" y="210" width="156" height="30" rx="4" fill="#B5D4F4" stroke="#185FA5" stroke-width="0.5"/>
<text x="308" y="223" text-anchor="middle" font-size="7.5" font-weight="600" fill="#042C53">Query / Command Handlers</text>
<text x="308" y="234" text-anchor="middle" font-size="7" fill="#0C447C">MediatR</text>
<rect x="230" y="246" width="156" height="30" rx="4" fill="#B5D4F4" stroke="#185FA5" stroke-width="0.5"/>
<text x="308" y="259" text-anchor="middle" font-size="7.5" font-weight="600" fill="#042C53">IMemoryCache</text>
<text x="308" y="270" text-anchor="middle" font-size="7" fill="#0C447C">TTL 30 min</text>
<rect x="230" y="282" width="156" height="30" rx="4" fill="#B5D4F4" stroke="#185FA5" stroke-width="0.5"/>
<text x="308" y="295" text-anchor="middle" font-size="7.5" font-weight="600" fill="#042C53">Eligibility Criteria</text>
<text x="308" y="306" text-anchor="middle" font-size="7" fill="#0C447C">Evaluator</text>

<!-- Compensation -->
<rect x="406" y="140" width="189" height="190" rx="6" fill="#D7E7F8" stroke="#185FA5" stroke-width="0.8"/>
<text x="500" y="156" text-anchor="middle" font-size="8.5" font-weight="700" fill="#0C447C">Compensation</text>
<text x="500" y="168" text-anchor="middle" font-size="7" fill="#185FA5">/api/v1/compensation</text>
<rect x="418" y="174" width="165" height="30" rx="4" fill="#B5D4F4" stroke="#185FA5" stroke-width="0.5"/>
<text x="500" y="187" text-anchor="middle" font-size="7.5" font-weight="600" fill="#042C53">Controller</text>
<text x="500" y="198" text-anchor="middle" font-size="7" fill="#0C447C">-&gt; ISender.Send()</text>
<rect x="418" y="210" width="165" height="30" rx="4" fill="#B5D4F4" stroke="#185FA5" stroke-width="0.5"/>
<text x="500" y="223" text-anchor="middle" font-size="7.5" font-weight="600" fill="#042C53">Query / Command Handlers</text>
<text x="500" y="234" text-anchor="middle" font-size="7" fill="#0C447C">MediatR</text>
<rect x="418" y="246" width="165" height="30" rx="4" fill="#B5D4F4" stroke="#185FA5" stroke-width="0.5"/>
<text x="500" y="259" text-anchor="middle" font-size="7.5" font-weight="600" fill="#042C53">IMemoryCache</text>
<text x="500" y="270" text-anchor="middle" font-size="7" fill="#0C447C">TTL 60 min</text>
<rect x="418" y="282" width="165" height="30" rx="4" fill="#B5D4F4" stroke="#185FA5" stroke-width="0.5"/>
<text x="500" y="295" text-anchor="middle" font-size="7.5" font-weight="600" fill="#042C53">NRules Engine</text>
<text x="500" y="306" text-anchor="middle" font-size="7" fill="#0C447C">Rule evaluation</text>

<!-- TRANSACTIONAL SERVICES CLUSTER -->
<rect x="620" y="116" width="580" height="296" rx="8" fill="#ECE3F6" stroke="#6B4FA8" stroke-width="1"/>
<text x="632" y="131" font-size="9" font-weight="700" fill="#4A2E7A">TRANSACTIONAL SERVICES — stateful · event-driven</text>

<!-- Claims & Documents (merged) -->
<rect x="630" y="140" width="190" height="262" rx="6" fill="#DED2F0" stroke="#6B4FA8" stroke-width="0.8"/>
<text x="725" y="156" text-anchor="middle" font-size="8.5" font-weight="700" fill="#4A2E7A">Claims &amp; Documents</text>
<text x="725" y="168" text-anchor="middle" font-size="7" fill="#6B4FA8">/api/v1/claims</text>
<rect x="642" y="174" width="166" height="28" rx="4" fill="#C9B6E6" stroke="#6B4FA8" stroke-width="0.5"/>
<text x="725" y="186" text-anchor="middle" font-size="7.5" font-weight="600" fill="#3A2461">Controller -&gt; ISender.Send()</text>
<text x="725" y="197" text-anchor="middle" font-size="7" fill="#4A2E7A">Query / Command Handlers (MediatR)</text>
<rect x="642" y="206" width="166" height="28" rx="4" fill="#C9B6E6" stroke="#6B4FA8" stroke-width="0.5"/>
<text x="725" y="218" text-anchor="middle" font-size="7.5" font-weight="600" fill="#3A2461">ClaimWorkflow</text>
<text x="725" y="229" text-anchor="middle" font-size="7" fill="#4A2E7A">State Machine</text>
<rect x="642" y="238" width="166" height="28" rx="4" fill="#C9B6E6" stroke="#6B4FA8" stroke-width="0.5"/>
<text x="725" y="250" text-anchor="middle" font-size="7.5" font-weight="600" fill="#3A2461">Document / Azure Blob Adapter</text>
<text x="725" y="261" text-anchor="middle" font-size="7" fill="#4A2E7A">store receipts &amp; documents</text>
<rect x="642" y="270" width="166" height="28" rx="4" fill="#C9B6E6" stroke="#6B4FA8" stroke-width="0.5"/>
<text x="725" y="282" text-anchor="middle" font-size="7.5" font-weight="600" fill="#3A2461">OCR Service (Tesseract.NET)</text>
<text x="725" y="293" text-anchor="middle" font-size="7" fill="#4A2E7A">-&gt; OCRResult Repository</text>
<rect x="642" y="302" width="166" height="28" rx="4" fill="#C9B6E6" stroke="#6B4FA8" stroke-width="0.5"/>
<text x="725" y="314" text-anchor="middle" font-size="7.5" font-weight="600" fill="#3A2461">IPublisher (domain events)</text>
<text x="725" y="325" text-anchor="middle" font-size="7" fill="#4A2E7A">StatusHistory Recorder</text>
<text x="725" y="345" text-anchor="middle" font-size="6.5" fill="#6B4FA8">One module: claim lifecycle + document/OCR handling</text>

<!-- Payroll -->
<rect x="828" y="140" width="180" height="200" rx="6" fill="#DED2F0" stroke="#6B4FA8" stroke-width="0.8"/>
<text x="918" y="156" text-anchor="middle" font-size="8.5" font-weight="700" fill="#4A2E7A">Payroll</text>
<text x="918" y="168" text-anchor="middle" font-size="7" fill="#6B4FA8">/api/v1/payroll</text>
<rect x="840" y="174" width="156" height="30" rx="4" fill="#C9B6E6" stroke="#6B4FA8" stroke-width="0.5"/>
<text x="918" y="187" text-anchor="middle" font-size="7.5" font-weight="600" fill="#3A2461">Controller -&gt; ISender.Send()</text>
<text x="918" y="198" text-anchor="middle" font-size="7" fill="#4A2E7A">GET payslip (sync)</text>
<rect x="840" y="210" width="156" height="30" rx="4" fill="#C9B6E6" stroke="#6B4FA8" stroke-width="0.5"/>
<text x="918" y="223" text-anchor="middle" font-size="7.5" font-weight="600" fill="#3A2461">IPayrollService</text>
<text x="918" y="234" text-anchor="middle" font-size="7" fill="#4A2E7A">+ Polly Retry</text>
<rect x="840" y="246" width="156" height="30" rx="4" fill="#C9B6E6" stroke="#6B4FA8" stroke-width="0.5"/>
<text x="918" y="259" text-anchor="middle" font-size="7.5" font-weight="600" fill="#3A2461">Settlement Handler</text>
<text x="918" y="270" text-anchor="middle" font-size="7" fill="#4A2E7A">async · ClaimApprovedEvent</text>
<rect x="840" y="282" width="156" height="30" rx="4" fill="#C9B6E6" stroke="#6B4FA8" stroke-width="0.5"/>
<text x="918" y="295" text-anchor="middle" font-size="7.5" font-weight="600" fill="#3A2461">PaySlip Generator</text>
<text x="918" y="306" text-anchor="middle" font-size="7" fill="#4A2E7A">ClosedXML</text>
<text x="918" y="326" text-anchor="middle" font-size="6.5" fill="#6B4FA8">Mix: sync read + async run</text>

<!-- Promotions -->
<rect x="1016" y="140" width="176" height="200" rx="6" fill="#DED2F0" stroke="#6B4FA8" stroke-width="0.8"/>
<text x="1104" y="156" text-anchor="middle" font-size="8.5" font-weight="700" fill="#4A2E7A">Promotions</text>
<text x="1104" y="168" text-anchor="middle" font-size="7" fill="#6B4FA8">/api/v1/promotions</text>
<rect x="1028" y="174" width="152" height="30" rx="4" fill="#C9B6E6" stroke="#6B4FA8" stroke-width="0.5"/>
<text x="1104" y="187" text-anchor="middle" font-size="7.5" font-weight="600" fill="#3A2461">Controller -&gt; ISender.Send()</text>
<text x="1104" y="198" text-anchor="middle" font-size="7" fill="#4A2E7A">MediatR</text>
<rect x="1028" y="210" width="152" height="30" rx="4" fill="#C9B6E6" stroke="#6B4FA8" stroke-width="0.5"/>
<text x="1104" y="223" text-anchor="middle" font-size="7.5" font-weight="600" fill="#3A2461">Query / Command Handlers</text>
<text x="1104" y="234" text-anchor="middle" font-size="7" fill="#4A2E7A">MediatR</text>
<rect x="1028" y="246" width="152" height="30" rx="4" fill="#C9B6E6" stroke="#6B4FA8" stroke-width="0.5"/>
<text x="1104" y="259" text-anchor="middle" font-size="7.5" font-weight="600" fill="#3A2461">Eligibility Checker</text>
<text x="1104" y="270" text-anchor="middle" font-size="7" fill="#4A2E7A">grade · tenure · rating</text>
<rect x="1028" y="282" width="152" height="30" rx="4" fill="#C9B6E6" stroke="#6B4FA8" stroke-width="0.5"/>
<text x="1104" y="295" text-anchor="middle" font-size="7.5" font-weight="600" fill="#3A2461">Nomination / Cycle Mgr</text>
<text x="1104" y="306" text-anchor="middle" font-size="7" fill="#4A2E7A">-&gt; CTC update (Compensation)</text>

<!-- MESSAGING BACKBONE -->
<rect x="20" y="424" width="585" height="56" rx="8" fill="#FAECE7" stroke="#993C1D" stroke-width="1"/>
<text x="32" y="439" font-size="9" font-weight="700" fill="#4A1B0C">EVENT BACKBONE</text>
<rect x="32" y="445" width="278" height="28" rx="4" fill="#F5C4B3" stroke="#D85A30" stroke-width="0.5"/>
<text x="171" y="457" text-anchor="middle" font-size="7.5" font-weight="600" fill="#4A1B0C">Azure Service Bus</text>
<text x="171" y="468" text-anchor="middle" font-size="7" fill="#71270F">Claim lifecycle topics · TTL 7 days · DLQ</text>
<rect x="318" y="445" width="277" height="28" rx="4" fill="#F5C4B3" stroke="#D85A30" stroke-width="0.5"/>
<text x="456" y="457" text-anchor="middle" font-size="7.5" font-weight="600" fill="#4A1B0C">Azure Event Hub</text>
<text x="456" y="468" text-anchor="middle" font-size="7" fill="#71270F">Append-only audit stream · 30-day retention</text>

<!-- REPORTING & AUDIT (7th service) -->
<rect x="620" y="424" width="580" height="56" rx="8" fill="#ECE3F6" stroke="#6B4FA8" stroke-width="1"/>
<text x="632" y="439" font-size="9" font-weight="700" fill="#4A2E7A">REPORTING &amp; AUDIT — Analytics Service · /api/v1/reports · internal read-only</text>
<rect x="632" y="445" width="108" height="28" rx="4" fill="#C9B6E6" stroke="#6B4FA8" stroke-width="0.5"/>
<text x="686" y="461" text-anchor="middle" font-size="7" font-weight="600" fill="#3A2461">ClaimSummary Rpt</text>
<rect x="746" y="445" width="108" height="28" rx="4" fill="#C9B6E6" stroke="#6B4FA8" stroke-width="0.5"/>
<text x="800" y="461" text-anchor="middle" font-size="7" font-weight="600" fill="#3A2461">Audit Report</text>
<rect x="860" y="445" width="108" height="28" rx="4" fill="#C9B6E6" stroke="#6B4FA8" stroke-width="0.5"/>
<text x="914" y="461" text-anchor="middle" font-size="7" font-weight="600" fill="#3A2461">Compensation Rpt</text>
<rect x="974" y="445" width="108" height="28" rx="4" fill="#C9B6E6" stroke="#6B4FA8" stroke-width="0.5"/>
<text x="1028" y="458" text-anchor="middle" font-size="7" font-weight="600" fill="#3A2461">AuditEntry</text>
<text x="1028" y="468" text-anchor="middle" font-size="6.5" fill="#4A2E7A">Ingestion (Event Hub)</text>
<rect x="1088" y="445" width="104" height="28" rx="4" fill="#C9B6E6" stroke="#6B4FA8" stroke-width="0.5"/>
<text x="1140" y="458" text-anchor="middle" font-size="7" font-weight="600" fill="#3A2461">ClosedXML</text>
<text x="1140" y="468" text-anchor="middle" font-size="6.5" fill="#4A2E7A">PDF / XLSX Export</text>

<!-- flow arrows -->
<line x1="725" y1="402" x2="200" y2="445" stroke="#993C1D" stroke-width="0.8" marker-end="url(#arr)" opacity="0.5"/>
<text x="430" y="416" font-size="6.5" fill="#993C1D">publish ClaimApproved / Rejected / Settled events</text>
<line x1="725" y1="402" x2="900" y2="424" stroke="#6B4FA8" stroke-width="0.8" marker-end="url(#arr)" opacity="0.5"/>
<text x="800" y="418" font-size="6.5" fill="#6B4FA8">emit AuditEvent</text>

<!-- FOOTNOTE -->
<text x="20" y="500" font-size="7.5" fill="#5F5E5A">Changes vs. previous version: "Employee Service" renamed to canonical "User Management"; "Documents Service" merged into the single "Claims &amp; Documents" module;</text>
<text x="20" y="512" font-size="7.5" fill="#5F5E5A">"Promotions" added as its own microservice; Payroll confirmed with a REST controller (GET payslips on-demand) plus async settlement — matching Architecture_Diagram.svg.</text>

</svg>
